<svg version="1.1" id="Layer_1" xmlns="http://www.w3.org/2000/svg" xmlns:xlink="http://www.w3.org/1999/xlink" x="0px" y="0px"
	 width="100%" viewBox="0 0 500 500" enable-background="new 0 0 500 500" xml:space="preserve">
<path fill="#000000" opacity="1.000000" stroke="none" 
	d="
M457.000000,501.000000 
	C304.666718,501.000000 152.833405,501.000000 1.000082,501.000000 
	C1.000054,334.333405 1.000054,167.666824 1.000027,1.000171 
	C167.666550,1.000114 334.333099,1.000114 500.999756,1.000057 
	C500.999817,167.666519 500.999817,334.333038 500.999908,500.999756 
	C486.500000,501.000000 472.000000,501.000000 457.000000,501.000000 
M399.794830,261.995605 
	C402.719879,256.455780 401.684479,254.612640 395.251923,252.586960 
	C390.782562,251.179504 387.011566,252.678101 384.223328,255.559708 
	C381.743622,258.122467 380.780762,261.778687 383.684723,265.180634 
	C384.024597,265.578766 384.190216,266.320679 384.107635,266.852081 
	C383.655914,269.758545 383.101379,272.648987 382.555847,275.691895 
	C389.532928,277.154388 396.152405,279.179108 400.907684,273.282104 
	C403.863922,269.616058 402.126160,265.344025 399.001617,262.003937 
	C399.001617,262.003937 398.932526,262.076660 399.794830,261.995605 
M248.809677,273.009064 
	C249.830017,273.785645 250.805588,274.631348 251.878708,275.326447 
	C255.817963,277.878113 259.801025,277.497711 263.930634,275.647766 
	C267.678986,273.968567 268.190491,270.734955 269.202881,266.653107 
	C262.331390,272.606903 256.243439,270.317108 254.612457,261.996033 
	C256.957855,261.996033 259.288391,261.996033 261.618896,261.996033 
	C264.040161,261.996033 266.461456,261.996033 269.097687,261.996033 
	C268.478607,257.292938 267.048187,254.241272 262.497589,252.921448 
	C254.367523,250.563477 246.995438,255.811157 247.012405,264.389343 
	C247.017670,267.049561 247.179199,269.709442 246.692123,272.843414 
	C243.458771,273.342407 242.119186,271.560150 242.033325,268.686127 
	C241.910294,264.568420 242.001968,260.444275 242.001968,256.250488 
	C244.253952,256.043549 246.122681,255.871826 247.991409,255.700104 
	C248.091721,255.090851 248.192017,254.481598 248.292328,253.872360 
	C246.334717,253.450027 244.377106,253.027695 242.119934,252.540741 
	C242.024902,251.190750 241.917175,249.660538 241.777817,247.680878 
	C237.901901,250.259796 234.486633,252.532227 231.567200,254.474716 
	C232.072800,257.128876 232.742645,259.548828 232.947083,262.007477 
	C233.180435,264.814178 232.182007,268.012421 233.218613,270.385376 
	C234.350845,272.977264 236.852036,275.885162 239.390244,276.713562 
	C242.445587,277.710693 246.785172,278.045410 248.809677,273.009064 
M317.019775,255.803223 
	C317.462006,262.403320 317.904266,269.003418 318.359955,275.804016 
	C321.161255,275.804016 324.920197,275.804016 328.074036,275.804016 
	C328.074036,267.808899 328.074036,259.987000 328.074036,252.083954 
	C323.958801,253.188782 320.433777,254.135147 316.995300,254.180313 
	C316.725769,250.840805 316.456207,247.501282 316.192291,244.231552 
	C307.360687,244.231552 299.272247,244.231552 291.403015,244.231552 
	C294.022095,254.888962 293.576996,265.346069 291.691498,275.781982 
	C295.628387,275.781982 299.755554,275.781982 303.458740,275.781982 
	C303.458740,270.754150 303.458740,265.944763 303.458740,259.564240 
	C307.060822,262.447754 309.830994,264.665344 312.312134,266.651520 
	C312.312134,262.197937 312.312134,257.750641 312.312134,253.303360 
	C309.834106,256.677765 307.956299,259.944031 303.227844,258.714386 
	C303.227844,254.331787 303.227844,250.221909 303.227844,246.106766 
	C309.785950,246.368942 310.917175,247.103470 317.019775,255.803223 
M148.062653,294.988647 
	C150.067261,294.468536 152.163666,294.171082 154.060318,293.389130 
	C161.599625,290.280792 164.143982,286.232666 164.844330,275.081818 
	C165.541916,263.975067 164.994110,252.790359 165.000015,241.639847 
	C165.003540,235.010178 162.324356,229.835876 156.715973,226.217789 
	C148.877426,221.160965 141.102036,216.003860 133.199387,211.049545 
	C127.058228,207.199570 120.151352,204.726318 113.445984,208.379822 
	C103.314354,213.900162 93.597069,220.230698 83.995461,226.653122 
	C79.180962,229.873489 76.706650,234.791229 76.959450,240.922638 
	C77.185158,246.396622 77.001793,251.887421 77.000931,257.370789 
	C76.999886,264.027832 76.747704,270.697083 77.068977,277.338593 
	C77.422539,284.647369 80.127678,290.766174 87.784233,293.217560 
	C90.504852,294.088623 93.394470,294.892334 96.214233,294.917786 
	C113.188210,295.070923 130.164307,294.988892 148.062653,294.988647 
M192.980774,274.191589 
	C193.194260,274.791687 193.393906,275.908844 193.623291,275.914978 
	C197.609711,276.021637 201.599777,275.991852 204.939102,275.991852 
	C203.445374,265.283447 203.529480,254.755798 204.833130,244.384247 
	C201.102753,244.384247 196.604980,244.384247 193.125229,244.384247 
	C193.515640,249.382706 193.882172,254.075455 194.243027,258.695526 
	C190.641876,258.695526 187.903229,258.695526 185.464996,258.695526 
	C185.464996,253.705292 185.464996,249.028122 185.464996,244.344849 
	C181.496872,244.344849 177.309494,244.344849 173.235229,244.344849 
	C175.702103,254.966904 176.075363,265.246826 173.168884,275.766541 
	C177.416534,275.766541 181.651443,275.766541 185.459290,275.766541 
	C185.459290,270.728485 185.459290,265.909515 185.459290,261.335815 
	C188.433151,261.335815 191.172958,261.335815 194.402084,261.335815 
	C193.956848,265.589996 193.551346,269.464294 192.980774,274.191589 
M379.272125,275.998505 
	C379.975922,274.967102 381.120758,273.999817 381.282043,272.889587 
	C381.536041,271.141724 381.026459,269.298187 381.018097,267.494324 
	C380.978943,259.048401 381.000702,250.602219 381.000702,241.536682 
	C376.945923,242.903061 373.501465,244.063751 370.438782,245.095795 
	C370.645660,247.967545 370.822357,250.420410 370.988525,252.727295 
	C368.798950,252.474548 367.136505,251.873810 365.662720,252.180313 
	C357.429291,253.892746 352.606201,264.492706 357.144318,271.780670 
	C358.632019,274.169861 362.003174,276.382294 364.769806,276.751556 
	C369.207947,277.343903 373.859955,276.333740 379.272125,275.998505 
M344.998352,267.411804 
	C344.853882,270.140320 344.709442,272.868835 344.554565,275.794250 
	C347.954742,275.794250 351.738861,275.794250 355.101501,275.794250 
	C354.735046,270.478699 354.199066,265.162109 354.065033,259.835449 
	C353.984924,256.651001 353.232147,254.452087 350.093994,252.916046 
	C346.851288,251.328842 344.531189,252.271957 342.173187,254.320999 
	C341.582916,254.833878 340.979584,255.331680 340.221466,255.972275 
	C340.045807,254.553452 339.907745,253.438232 339.769257,252.319550 
	C336.048920,253.410751 332.494019,254.453415 329.071075,255.457382 
	C332.467224,262.281128 330.837677,269.023621 330.380646,275.835571 
	C334.129791,275.835571 337.884796,275.835571 341.119904,275.835571 
	C340.740265,271.182831 340.189667,266.656097 340.065338,262.117676 
	C339.984650,259.171112 341.209381,257.113342 344.998352,258.450928 
	C344.998352,261.166290 344.998352,263.812378 344.998352,267.411804 
M230.979813,269.093567 
	C233.722183,260.530853 229.440460,253.713669 220.064713,252.034103 
	C213.647415,250.884506 205.075165,259.018463 206.035843,265.297821 
	C206.952301,271.288147 210.958450,276.389893 216.074020,276.882690 
	C222.582642,277.509705 226.463760,277.055542 230.979813,269.093567 
M278.950409,275.996796 
	C279.374756,275.527466 280.189545,275.035858 280.164215,274.592194 
	C279.847412,269.043854 279.258759,263.508209 279.045013,257.957581 
	C278.842865,252.707642 279.001617,247.443787 279.001617,241.863541 
	C275.005066,243.112518 271.558655,244.189560 269.296661,244.896454 
	C270.652191,255.531830 269.794556,265.561035 269.926392,275.998108 
	C272.138184,275.998108 275.104004,275.998108 278.950409,275.996796 
M327.572632,244.057114 
	C324.589355,240.174500 320.749969,239.796234 319.081329,243.499619 
	C318.353760,245.114471 318.336060,247.812531 319.251862,249.173691 
	C320.048492,250.357712 323.367218,251.333542 324.236786,250.665115 
	C325.965790,249.336044 326.776611,246.812576 327.572632,244.057114 
z"/>
<path fill="#FFFFFF" opacity="1.000000" stroke="none" 
	d="
M147.601166,294.987122 
	C130.164307,294.988892 113.188210,295.070923 96.214233,294.917786 
	C93.394470,294.892334 90.504852,294.088623 87.784233,293.217560 
	C80.127678,290.766174 77.422539,284.647369 77.068977,277.338593 
	C76.747704,270.697083 76.999886,264.027832 77.000931,257.370789 
	C77.001793,251.887421 77.185158,246.396622 76.959450,240.922638 
	C76.706650,234.791229 79.180962,229.873489 83.995461,226.653122 
	C93.597069,220.230698 103.314354,213.900162 113.445984,208.379822 
	C120.151352,204.726318 127.058228,207.199570 133.199387,211.049545 
	C141.102036,216.003860 148.877426,221.160965 156.715973,226.217789 
	C162.324356,229.835876 165.003540,235.010178 165.000015,241.639847 
	C164.994110,252.790359 165.541916,263.975067 164.844330,275.081818 
	C164.143982,286.232666 161.599625,290.280792 154.060318,293.389130 
	C152.163666,294.171082 150.067261,294.468536 147.601166,294.987122 
M136.452774,266.977570 
	C134.833466,266.937225 132.868790,266.278259 131.651428,266.957886 
	C124.238579,271.096252 117.135139,271.497955 109.878693,266.551636 
	C108.955528,265.922363 106.966637,266.856537 105.471466,267.066406 
	C105.891975,268.457794 105.875046,270.347870 106.802437,271.161407 
	C113.988510,277.465179 127.606972,277.511566 135.087479,271.305847 
	C136.064880,270.495026 136.350815,268.850708 136.452774,266.977570 
z"/>
<path fill="#FEFEFE" opacity="1.000000" stroke="none" 
	d="
M193.063309,273.765106 
	C193.551346,269.464294 193.956848,265.589996 194.402084,261.335815 
	C191.172958,261.335815 188.433151,261.335815 185.459290,261.335815 
	C185.459290,265.909515 185.459290,270.728485 185.459290,275.766541 
	C181.651443,275.766541 177.416534,275.766541 173.168884,275.766541 
	C176.075363,265.246826 175.702103,254.966904 173.235229,244.344849 
	C177.309494,244.344849 181.496872,244.344849 185.464996,244.344849 
	C185.464996,249.028122 185.464996,253.705292 185.464996,258.695526 
	C187.903229,258.695526 190.641876,258.695526 194.243027,258.695526 
	C193.882172,254.075455 193.515640,249.382706 193.125229,244.384247 
	C196.604980,244.384247 201.102753,244.384247 204.833130,244.384247 
	C203.529480,254.755798 203.445374,265.283447 204.939102,275.991852 
	C201.599777,275.991852 197.609711,276.021637 193.623291,275.914978 
	C193.393906,275.908844 193.194260,274.791687 193.063309,273.765106 
z"/>
<path fill="#FEFEFE" opacity="1.000000" stroke="none" 
	d="
M378.846863,275.999634 
	C373.859955,276.333740 369.207947,277.343903 364.769806,276.751556 
	C362.003174,276.382294 358.632019,274.169861 357.144318,271.780670 
	C352.606201,264.492706 357.429291,253.892746 365.662720,252.180313 
	C367.136505,251.873810 368.798950,252.474548 370.988525,252.727295 
	C370.822357,250.420410 370.645660,247.967545 370.438782,245.095795 
	C373.501465,244.063751 376.945923,242.903061 381.000702,241.536682 
	C381.000702,250.602219 380.978943,259.048401 381.018097,267.494324 
	C381.026459,269.298187 381.536041,271.141724 381.282043,272.889587 
	C381.120758,273.999817 379.975922,274.967102 378.846863,275.999634 
M366.001282,265.349976 
	C366.066284,268.571350 365.377747,272.370789 370.997192,271.914734 
	C370.997192,267.234192 371.171021,262.924347 370.889343,258.644531 
	C370.806854,257.390839 369.429779,256.222382 368.646057,255.014877 
	C367.768311,256.161743 366.418335,257.200165 366.124176,258.481049 
	C365.689575,260.373566 366.005493,262.438446 366.001282,265.349976 
z"/>
<path fill="#FEFEFE" opacity="1.000000" stroke="none" 
	d="
M344.998352,266.935120 
	C344.998352,263.812378 344.998352,261.166290 344.998352,258.450928 
	C341.209381,257.113342 339.984650,259.171112 340.065338,262.117676 
	C340.189667,266.656097 340.740265,271.182831 341.119904,275.835571 
	C337.884796,275.835571 334.129791,275.835571 330.380646,275.835571 
	C330.837677,269.023621 332.467224,262.281128 329.071075,255.457382 
	C332.494019,254.453415 336.048920,253.410751 339.769257,252.319550 
	C339.907745,253.438232 340.045807,254.553452 340.221466,255.972275 
	C340.979584,255.331680 341.582916,254.833878 342.173187,254.320999 
	C344.531189,252.271957 346.851288,251.328842 350.093994,252.916046 
	C353.232147,254.452087 353.984924,256.651001 354.065033,259.835449 
	C354.199066,265.162109 354.735046,270.478699 355.101501,275.794250 
	C351.738861,275.794250 347.954742,275.794250 344.554565,275.794250 
	C344.709442,272.868835 344.853882,270.140320 344.998352,266.935120 
z"/>
<path fill="#FEFEFE" opacity="1.000000" stroke="none" 
	d="
M317.048950,254.940613 
	C310.917175,247.103470 309.785950,246.368942 303.227844,246.106766 
	C303.227844,250.221909 303.227844,254.331787 303.227844,258.714386 
	C307.956299,259.944031 309.834106,256.677765 312.312134,253.303360 
	C312.312134,257.750641 312.312134,262.197937 312.312134,266.651520 
	C309.830994,264.665344 307.060822,262.447754 303.458740,259.564240 
	C303.458740,265.944763 303.458740,270.754150 303.458740,275.781982 
	C299.755554,275.781982 295.628387,275.781982 291.691498,275.781982 
	C293.576996,265.346069 294.022095,254.888962 291.403015,244.231552 
	C299.272247,244.231552 307.360687,244.231552 316.192291,244.231552 
	C316.456207,247.501282 316.725769,250.840805 316.988159,254.596771 
	C316.981018,255.013229 317.048950,254.940613 317.048950,254.940613 
z"/>
<path fill="#FEFEFE" opacity="1.000000" stroke="none" 
	d="
M230.836060,269.466553 
	C226.463760,277.055542 222.582642,277.509705 216.074020,276.882690 
	C210.958450,276.389893 206.952301,271.288147 206.035843,265.297821 
	C205.075165,259.018463 213.647415,250.884506 220.064713,252.034103 
	C229.440460,253.713669 233.722183,260.530853 230.836060,269.466553 
M216.018005,268.993805 
	C216.798660,271.078491 217.579315,273.163147 218.359970,275.247833 
	C223.320541,268.306732 222.584747,261.461761 220.002502,253.234985 
	C218.601410,254.991867 217.274567,255.910767 217.097061,257.014496 
	C216.508286,260.675415 216.333344,264.402954 216.018005,268.993805 
z"/>
<path fill="#FEFEFE" opacity="1.000000" stroke="none" 
	d="
M247.269196,272.369476 
	C247.179199,269.709442 247.017670,267.049561 247.012405,264.389343 
	C246.995438,255.811157 254.367523,250.563477 262.497589,252.921448 
	C267.048187,254.241272 268.478607,257.292938 269.097687,261.996033 
	C266.461456,261.996033 264.040161,261.996033 261.618896,261.996033 
	C259.288391,261.996033 256.957855,261.996033 254.612457,261.996033 
	C256.243439,270.317108 262.331390,272.606903 269.202881,266.653107 
	C268.190491,270.734955 267.678986,273.968567 263.930634,275.647766 
	C259.801025,277.497711 255.817963,277.878113 251.878708,275.326447 
	C250.805588,274.631348 249.830017,273.785645 248.246552,272.859589 
	C247.545364,272.596558 247.407288,272.483032 247.269196,272.369476 
M254.386581,256.100281 
	C254.270554,257.301331 254.154541,258.502380 254.042725,259.659912 
	C256.279175,259.659912 258.103302,259.659912 260.104950,259.659912 
	C259.580322,256.373871 258.997986,253.749100 254.386581,256.100281 
z"/>
<path fill="#FDFDFD" opacity="1.000000" stroke="none" 
	d="
M399.074524,261.935028 
	C402.126160,265.344025 403.863922,269.616058 400.907684,273.282104 
	C396.152405,279.179108 389.532928,277.154388 382.555847,275.691895 
	C383.101379,272.648987 383.655914,269.758545 384.107635,266.852081 
	C384.190216,266.320679 384.024597,265.578766 383.684723,265.180634 
	C380.780762,261.778687 381.743622,258.122467 384.223328,255.559708 
	C387.011566,252.678101 390.782562,251.179504 395.251923,252.586960 
	C401.684479,254.612640 402.719879,256.455780 399.392517,261.662781 
	C396.986023,259.219116 395.137848,256.912445 392.882996,255.116318 
	C392.203094,254.574738 390.393738,255.451035 389.101776,255.677841 
	C389.706970,256.932098 389.997864,258.843201 390.978638,259.312500 
	C393.514862,260.526093 396.355469,261.103546 399.074524,261.935028 
M392.229828,269.031769 
	C389.817444,268.355408 387.405060,267.679047 384.992706,267.002655 
	C384.665680,267.349365 384.338684,267.696045 384.011688,268.042755 
	C386.008392,270.204163 387.715485,272.827057 390.121216,274.336670 
	C391.365723,275.117584 393.849213,273.924133 395.772919,273.622681 
	C394.827484,272.221130 393.882080,270.819580 392.229828,269.031769 
z"/>
<path fill="#FEFEFE" opacity="1.000000" stroke="none" 
	d="
M278.510132,275.997437 
	C275.104004,275.998108 272.138184,275.998108 269.926392,275.998108 
	C269.794556,265.561035 270.652191,255.531830 269.296661,244.896454 
	C271.558655,244.189560 275.005066,243.112518 279.001617,241.863541 
	C279.001617,247.443787 278.842865,252.707642 279.045013,257.957581 
	C279.258759,263.508209 279.847412,269.043854 280.164215,274.592194 
	C280.189545,275.035858 279.374756,275.527466 278.510132,275.997437 
z"/>
<path fill="#FEFEFE" opacity="1.000000" stroke="none" 
	d="
M247.879669,272.892822 
	C246.785172,278.045410 242.445587,277.710693 239.390244,276.713562 
	C236.852036,275.885162 234.350845,272.977264 233.218613,270.385376 
	C232.182007,268.012421 233.180435,264.814178 232.947083,262.007477 
	C232.742645,259.548828 232.072800,257.128876 231.567200,254.474716 
	C234.486633,252.532227 237.901901,250.259796 241.777817,247.680878 
	C241.917175,249.660538 242.024902,251.190750 242.119934,252.540741 
	C244.377106,253.027695 246.334717,253.450027 248.292328,253.872360 
	C248.192017,254.481598 248.091721,255.090851 247.991409,255.700104 
	C246.122681,255.871826 244.253952,256.043549 242.001968,256.250488 
	C242.001968,260.444275 241.910294,264.568420 242.033325,268.686127 
	C242.119186,271.560150 243.458771,273.342407 246.980652,272.606445 
	C247.407288,272.483032 247.545364,272.596558 247.879669,272.892822 
z"/>
<path fill="#FEFEFE" opacity="1.000000" stroke="none" 
	d="
M316.944885,255.047363 
	C320.433777,254.135147 323.958801,253.188782 328.074036,252.083954 
	C328.074036,259.987000 328.074036,267.808899 328.074036,275.804016 
	C324.920197,275.804016 321.161255,275.804016 318.359955,275.804016 
	C317.904266,269.003418 317.462006,262.403320 317.034363,255.371918 
	C317.048950,254.940613 316.981018,255.013229 316.944885,255.047363 
z"/>
<path fill="#FEFEFE" opacity="1.000000" stroke="none" 
	d="
M327.769714,244.419861 
	C326.776611,246.812576 325.965790,249.336044 324.236786,250.665115 
	C323.367218,251.333542 320.048492,250.357712 319.251862,249.173691 
	C318.336060,247.812531 318.353760,245.114471 319.081329,243.499619 
	C320.749969,239.796234 324.589355,240.174500 327.769714,244.419861 
z"/>
<path fill="#000000" opacity="1.000000" stroke="none" 
	d="
M136.704895,267.285004 
	C136.350815,268.850708 136.064880,270.495026 135.087479,271.305847 
	C127.606972,277.511566 113.988510,277.465179 106.802437,271.161407 
	C105.875046,270.347870 105.891975,268.457794 105.471466,267.066406 
	C106.966637,266.856537 108.955528,265.922363 109.878693,266.551636 
	C117.135139,271.497955 124.238579,271.096252 131.651428,266.957886 
	C132.868790,266.278259 134.833466,266.937225 136.704895,267.285004 
z"/>
<path fill="#000000" opacity="1.000000" stroke="none" 
	d="
M366.001556,264.889954 
	C366.005493,262.438446 365.689575,260.373566 366.124176,258.481049 
	C366.418335,257.200165 367.768311,256.161743 368.646057,255.014893 
	C369.429779,256.222382 370.806854,257.390839 370.889343,258.644531 
	C371.171021,262.924347 370.997192,267.234192 370.997192,271.914734 
	C365.377747,272.370789 366.066284,268.571350 366.001556,264.889954 
z"/>
<path fill="#000000" opacity="1.000000" stroke="none" 
	d="
M216.008835,268.549377 
	C216.333344,264.402954 216.508286,260.675415 217.097061,257.014496 
	C217.274567,255.910767 218.601410,254.991867 220.002502,253.234985 
	C222.584747,261.461761 223.320541,268.306732 218.359970,275.247833 
	C217.579315,273.163147 216.798660,271.078491 216.008835,268.549377 
z"/>
<path fill="#000000" opacity="1.000000" stroke="none" 
	d="
M254.699280,255.801331 
	C258.997986,253.749100 259.580322,256.373871 260.104950,259.659912 
	C258.103302,259.659912 256.279175,259.659912 254.042725,259.659912 
	C254.154541,258.502380 254.270554,257.301331 254.699280,255.801331 
z"/>
<path fill="#000000" opacity="1.000000" stroke="none" 
	d="
M392.583252,269.224915 
	C393.882080,270.819580 394.827484,272.221130 395.772919,273.622681 
	C393.849213,273.924133 391.365723,275.117584 390.121216,274.336670 
	C387.715485,272.827057 386.008392,270.204163 384.011688,268.042755 
	C384.338684,267.696045 384.665680,267.349365 384.992706,267.002655 
	C387.405060,267.679047 389.817444,268.355408 392.583252,269.224915 
z"/>
<path fill="#000000" opacity="1.000000" stroke="none" 
	d="
M399.038086,261.969482 
	C396.355469,261.103546 393.514862,260.526093 390.978638,259.312500 
	C389.997864,258.843201 389.706970,256.932098 389.101776,255.677841 
	C390.393738,255.451035 392.203094,254.574738 392.882996,255.116318 
	C395.137848,256.912445 396.986023,259.219116 398.961365,261.703308 
	C398.932526,262.076660 399.001617,262.003937 399.038086,261.969482 
z"/>
</svg>